<?xml version="1.0" encoding="UTF-8"?>
<svg id="Layer_2" xmlns="http://www.w3.org/2000/svg" viewBox="0 0 289 286">
  <defs>
    <style>
      .cls-1 {
        fill: #c1d8c4;
      }
    </style>
  </defs>
  <g id="Layer_1-2" data-name="Layer_1">
    <g>
      <path class="cls-1" d="M216.17,16l-72.17,125L72.08,16.43C28.99,41.44,0,88.08,0,141.5c0,79.81,64.69,144.5,144.5,144.5s144.5-64.69,144.5-144.5c0-53.72-29.32-100.6-72.83-125.5Z"/>
      <path class="cls-1" d="M115.64,50.74c-.4,1.52-.64,3.11-.64,4.76,0,10.22,8.28,18.5,18.5,18.5,4.13,0,7.92-1.37,11-3.65,3.08,2.28,6.87,3.65,11,3.65,10.22,0,18.5-8.28,18.5-18.5,0-1.65-.24-3.24-.64-4.76,5.74-3.14,9.64-9.23,9.64-16.24,0-10.22-8.28-18.5-18.5-18.5-.57,0-1.12.03-1.68.08-1.19-9.07-8.93-16.08-18.32-16.08s-17.14,7.01-18.32,16.08c-.55-.05-1.11-.08-1.68-.08-10.22,0-18.5,8.28-18.5,18.5,0,7.01,3.9,13.1,9.64,16.24Z"/>
    </g>
  </g>
</svg>