<?xml version="1.0" encoding="UTF-8"?>
<svg id="Layer_2" xmlns="http://www.w3.org/2000/svg" viewBox="0 0 470.07 473.2">
  <defs>
    <style>
      .cls-1 {
        fill: #ffcf00;
      }
    </style>
  </defs>
  <g id="Layer_1-2" data-name="Layer_1">
    <path class="cls-1" d="M373.19,139.8c-32.46-.08-63.85,17.34-80.83,44.11-5.06,7.08-10.93,22.36-21.36,17.96-13.55-11.76,15.33-20.46,24.64-29.39,27.07-21.07,40.99-57.43,35.19-91.47C319.59,4.79,222.61-27.12,167.89,27.04c-46.11,43.34-36.06,123.3,19.33,153.8,10.43,6.39,20.31,10.57,14.51,20.07-11.27,9.06-18.12-9.55-24.41-18.38C129.18,110.36,14.89,134.96,1.4,220.96c-9.65,54.34,31.68,108.37,87.27,112.13,26.34,2.34,53.51-6.6,73.03-24.36,12.26-9.51,19.25-26.4,28.74-37.34,7.47-7.34,19.16,2.78,12.28,10.39-4.27,5.11-17.12,9.94-26.39,17.33-16.21,12.32-28.25,29.44-34.16,49.34-13.91,44.28,8.52,95.8,50.76,115.14,56.28,28.5,129.82-9.62,137.69-72.46,6.35-38.78-13-79.43-47-98.66-9.13-5.27-16.66-9.1-17.41-14.1-1.34-8.23,9.33-12.09,15.25-5.24,3.51,3.69,5.99,8.39,8.74,12.79,7.08,11.9,16.65,22.31,28.04,30.21,19.1,13.53,44.3,19.62,67.8,16.51,119.02-18.88,108.54-188.78-12.03-192.86h-.82Z"/>
  </g>
</svg>